<svg width="46" height="46" viewBox="0 0 46 46" fill="none" xmlns="http://www.w3.org/2000/svg">
<path fill-rule="evenodd" clip-rule="evenodd" d="M17.9375 15.9688C17.9375 17.0561 17.0561 17.9375 15.9688 17.9375C14.8814 17.9375 14 17.0561 14 15.9688C14 14.8814 14.8814 14 15.9688 14C17.0561 14 17.9375 14.8814 17.9375 15.9688ZM18.0252 19.625H14V32H18.0252V19.625ZM28.9472 19.7564C28.9612 19.761 28.9752 19.7656 28.9895 19.7701C29.8499 19.9923 30.6122 20.4936 31.157 21.1956C31.7019 21.8976 31.9983 22.7605 32 23.6491V32H27.9759V24.125C26.6923 21.0132 23.6503 25.25 23.6503 25.25V32H19.625V19.625H23.6503V21.9909C24.1408 21.3316 25.6291 19.625 27.9759 19.625C28.2185 19.625 28.4604 19.6495 28.6981 19.6981C28.7528 19.7069 28.8072 19.7174 28.8612 19.7296C28.8912 19.7379 28.9192 19.7471 28.9472 19.7564Z" fill="#4A14B5"/>
<rect x="0.5" y="0.5" width="45" height="45" rx="22.5" stroke="#4A14B5"/>
</svg>
