<svg width="18" height="15" viewBox="0 0 18 15" fill="none" xmlns="http://www.w3.org/2000/svg">
<path d="M17.9275 2.01463C17.2685 2.30055 16.5715 2.48957 15.8583 2.57579C16.6107 2.12627 17.1746 1.41908 17.4453 0.585427C16.7382 1.00635 15.9641 1.30292 15.1568 1.46224C14.6172 0.87703 13.8986 0.487484 13.1137 0.354696C12.3288 0.221907 11.522 0.353387 10.8199 0.728514C10.1178 1.10364 9.56006 1.7012 9.23415 2.42747C8.90825 3.15373 8.83262 3.96763 9.01912 4.74151C7.58942 4.6692 6.19092 4.29693 4.91446 3.64889C3.63801 3.00084 2.51217 2.09152 1.61006 0.979992C1.29366 1.53253 1.1274 2.15827 1.12782 2.79499C1.1267 3.3863 1.27181 3.96871 1.55023 4.49036C1.82865 5.01202 2.23174 5.45674 2.72362 5.78492C2.15191 5.76937 1.59243 5.61596 1.09275 5.33775V5.38159C1.09703 6.21008 1.38735 7.01166 1.91459 7.65075C2.44184 8.28983 3.17364 8.72719 3.98622 8.88883C3.67343 8.98403 3.34867 9.03422 3.02173 9.03789C2.79542 9.03525 2.56967 9.01472 2.34659 8.97651C2.57799 9.6892 3.02578 10.312 3.62767 10.7583C4.22956 11.2046 4.95561 11.4522 5.70478 11.4667C4.43971 12.4621 2.87783 13.0053 1.26811 13.0098C0.975021 13.0108 0.682166 12.9932 0.391296 12.9572C2.03482 14.0184 3.95011 14.5817 5.90644 14.5793C7.25646 14.5934 8.59574 14.3382 9.84606 13.8289C11.0964 13.3195 12.2327 12.5661 13.1885 11.6126C14.1444 10.6592 14.9007 9.52487 15.4133 8.27586C15.9259 7.02685 16.1845 5.68823 16.1739 4.33818C16.1739 4.18912 16.1739 4.0313 16.1739 3.87347C16.8619 3.36037 17.4553 2.73136 17.9275 2.01463Z" fill="#D1CCDB"/>
</svg>
