<svg width="47" height="46" viewBox="0 0 47 46" fill="none" xmlns="http://www.w3.org/2000/svg">
<path d="M33.6784 16.86C33.4009 15.7344 32.5835 14.8472 31.5449 14.546C29.6639 14 22.1184 14 22.1184 14C22.1184 14 14.5729 14 12.6909 14.546C11.6533 14.8472 10.8359 15.7333 10.5584 16.86C10.0537 18.901 10.0537 23.1585 10.0537 23.1585C10.0537 23.1585 10.0537 27.416 10.5584 29.457C10.8359 30.5826 11.6533 31.4698 12.6919 31.771C14.5729 32.317 22.1184 32.317 22.1184 32.317C22.1184 32.317 29.6639 32.317 31.5459 31.771C32.5835 31.4698 33.4009 30.5837 33.6794 29.457C34.1831 27.416 34.1831 23.1585 34.1831 23.1585C34.1831 23.1585 34.1831 18.901 33.6784 16.86ZM19.6512 27.0249V19.2921L25.957 23.1585L19.6512 27.0249Z" fill="#4A14B5"/>
<rect x="0.5" y="0.5" width="45.248" height="45" rx="22.5" stroke="#4A14B5"/>
</svg>
