<svg width="18" height="18" viewBox="0 0 18 18" fill="none" xmlns="http://www.w3.org/2000/svg">
<path d="M6.13089 9.00005C6.13089 7.4153 7.41524 6.13026 8.99999 6.13026C10.5847 6.13026 11.8698 7.4153 11.8698 9.00005C11.8698 10.5848 10.5847 11.8699 8.99999 11.8699C7.41524 11.8699 6.13089 10.5848 6.13089 9.00005ZM4.57952 9.00005C4.57952 11.4415 6.55854 13.4205 8.99999 13.4205C11.4414 13.4205 13.4205 11.4415 13.4205 9.00005C13.4205 6.55861 11.4414 4.57958 8.99999 4.57958C6.55854 4.57958 4.57952 6.55861 4.57952 9.00005ZM12.5624 4.40434C12.5624 4.97455 13.0248 5.43767 13.5957 5.43767C14.1659 5.43767 14.629 4.97455 14.629 4.40434C14.629 3.83414 14.1666 3.37172 13.5957 3.37172C13.0248 3.37172 12.5624 3.83414 12.5624 4.40434ZM5.52174 16.0073C4.68243 15.9691 4.22627 15.8293 3.92309 15.7111C3.52116 15.5546 3.23467 15.3683 2.93288 15.0672C2.63178 14.7661 2.44473 14.4796 2.28896 14.0777C2.17075 13.7745 2.03098 13.3183 1.99274 12.479C1.95101 11.5715 1.94267 11.299 1.94267 9.00005C1.94267 6.70116 1.95171 6.42927 1.99274 5.52111C2.03098 4.6818 2.17145 4.22633 2.28896 3.92245C2.44542 3.52053 2.63178 3.23404 2.93288 2.93224C3.23397 2.63115 3.52047 2.44409 3.92309 2.28833C4.22627 2.17012 4.68243 2.03035 5.52174 1.9921C6.4292 1.95038 6.70179 1.94204 8.99999 1.94204C11.2989 1.94204 11.5708 1.95108 12.4789 1.9921C13.3182 2.03035 13.7737 2.17081 14.0776 2.28833C14.4795 2.44409 14.766 2.63115 15.0678 2.93224C15.3689 3.23334 15.5553 3.52053 15.7117 3.92245C15.8299 4.22563 15.9697 4.6818 16.0079 5.52111C16.0497 6.42927 16.058 6.70116 16.058 9.00005C16.058 11.2983 16.0497 11.5708 16.0079 12.479C15.9697 13.3183 15.8292 13.7745 15.7117 14.0777C15.5553 14.4796 15.3689 14.7661 15.0678 15.0672C14.7667 15.3683 14.4795 15.5546 14.0776 15.7111C13.7744 15.8293 13.3182 15.9691 12.4789 16.0073C11.5715 16.049 11.2989 16.0574 8.99999 16.0574C6.70179 16.0574 6.4292 16.049 5.52174 16.0073ZM5.45082 0.44351C4.53432 0.485233 3.90848 0.630565 3.36123 0.843349C2.79519 1.06309 2.31539 1.35792 1.83628 1.83634C1.35786 2.31475 1.06302 2.79456 0.843288 3.36129C0.630504 3.90855 0.485171 4.53438 0.443449 5.45088C0.401032 6.36877 0.391296 6.66222 0.391296 9.00005C0.391296 11.3379 0.401032 11.6313 0.443449 12.5492C0.485171 13.4657 0.630504 14.0916 0.843288 14.6388C1.06302 15.2049 1.35717 15.6854 1.83628 16.1638C2.31469 16.6422 2.7945 16.9363 3.36123 17.1568C3.90918 17.3695 4.53432 17.5149 5.45082 17.5566C6.3694 17.5983 6.66215 17.6087 8.99999 17.6087C11.3385 17.6087 11.6313 17.599 12.5492 17.5566C13.4657 17.5149 14.0915 17.3695 14.6388 17.1568C15.2048 16.9363 15.6846 16.6422 16.1637 16.1638C16.6421 15.6854 16.9363 15.2049 17.1567 14.6388C17.3695 14.0916 17.5155 13.4657 17.5565 12.5492C17.5983 11.6306 17.608 11.3379 17.608 9.00005C17.608 6.66222 17.5983 6.36877 17.5565 5.45088C17.5148 4.53438 17.3695 3.90855 17.1567 3.36129C16.9363 2.79526 16.6421 2.31545 16.1637 1.83634C15.6853 1.35792 15.2048 1.06309 14.6395 0.843349C14.0915 0.630565 13.4657 0.484537 12.5499 0.44351C11.632 0.401788 11.3385 0.391357 9.00069 0.391357C6.66215 0.391357 6.3694 0.401093 5.45082 0.44351Z" fill="#D1CCDB"/>
</svg>
