<svg width="46" height="46" viewBox="0 0 46 46" fill="none" xmlns="http://www.w3.org/2000/svg">
<path d="M20.0005 23C20.0005 21.3432 21.3432 19.9998 23 19.9998C24.6568 19.9998 26.0002 21.3432 26.0002 23C26.0002 24.6568 24.6568 26.0002 23 26.0002C21.3432 26.0002 20.0005 24.6568 20.0005 23ZM18.3786 23C18.3786 25.5524 20.4476 27.6214 23 27.6214C25.5524 27.6214 27.6214 25.5524 27.6214 23C27.6214 20.4476 25.5524 18.3786 23 18.3786C20.4476 18.3786 18.3786 20.4476 18.3786 23ZM26.7243 18.1954C26.7243 18.7915 27.2078 19.2757 27.8046 19.2757C28.4007 19.2757 28.8849 18.7915 28.8849 18.1954C28.8849 17.5993 28.4015 17.1158 27.8046 17.1158C27.2078 17.1158 26.7243 17.5993 26.7243 18.1954ZM19.3637 30.3258C18.4862 30.2858 18.0093 30.1397 17.6923 30.0161C17.2721 29.8525 16.9726 29.6577 16.6571 29.3429C16.3423 29.0281 16.1468 28.7286 15.9839 28.3084C15.8603 27.9914 15.7142 27.5145 15.6742 26.6371C15.6306 25.6884 15.6219 25.4034 15.6219 23C15.6219 20.5966 15.6313 20.3124 15.6742 19.3629C15.7142 18.4855 15.8611 18.0093 15.9839 17.6916C16.1475 17.2714 16.3423 16.9719 16.6571 16.6564C16.9719 16.3416 17.2714 16.146 17.6923 15.9832C18.0093 15.8596 18.4862 15.7135 19.3637 15.6735C20.3124 15.6299 20.5973 15.6212 23 15.6212C25.4034 15.6212 25.6876 15.6306 26.6371 15.6735C27.5145 15.7135 27.9907 15.8603 28.3084 15.9832C28.7286 16.146 29.0281 16.3416 29.3436 16.6564C29.6584 16.9712 29.8532 17.2714 30.0168 17.6916C30.1404 18.0086 30.2865 18.4855 30.3265 19.3629C30.3701 20.3124 30.3788 20.5966 30.3788 23C30.3788 25.4027 30.3701 25.6876 30.3265 26.6371C30.2865 27.5145 30.1397 27.9914 30.0168 28.3084C29.8532 28.7286 29.6584 29.0281 29.3436 29.3429C29.0288 29.6577 28.7286 29.8525 28.3084 30.0161C27.9914 30.1397 27.5145 30.2858 26.6371 30.3258C25.6884 30.3694 25.4034 30.3781 23 30.3781C20.5973 30.3781 20.3124 30.3694 19.3637 30.3258ZM19.2895 14.0545C18.3313 14.0981 17.6771 14.2501 17.1049 14.4725C16.5132 14.7023 16.0116 15.0105 15.5107 15.5107C15.0105 16.0108 14.7023 16.5124 14.4725 17.1049C14.2501 17.6771 14.0981 18.3313 14.0545 19.2895C14.0102 20.2491 14 20.5559 14 23C14 25.4441 14.0102 25.7509 14.0545 26.7105C14.0981 27.6687 14.2501 28.3229 14.4725 28.8951C14.7023 29.4868 15.0098 29.9892 15.5107 30.4893C16.0108 30.9895 16.5124 31.297 17.1049 31.5275C17.6778 31.7499 18.3313 31.9019 19.2895 31.9455C20.2498 31.9891 20.5559 32 23 32C25.4448 32 25.7509 31.9898 26.7105 31.9455C27.6687 31.9019 28.3229 31.7499 28.8951 31.5275C29.4868 31.297 29.9884 30.9895 30.4893 30.4893C30.9895 29.9892 31.297 29.4868 31.5275 28.8951C31.7499 28.3229 31.9026 27.6687 31.9455 26.7105C31.9891 25.7502 31.9993 25.4441 31.9993 23C31.9993 20.5559 31.9891 20.2491 31.9455 19.2895C31.9019 18.3313 31.7499 17.6771 31.5275 17.1049C31.297 16.5132 30.9895 16.0116 30.4893 15.5107C29.9892 15.0105 29.4868 14.7023 28.8958 14.4725C28.3229 14.2501 27.6687 14.0974 26.7112 14.0545C25.7516 14.0109 25.4448 14 23.0007 14C20.5559 14 20.2498 14.0102 19.2895 14.0545Z" fill="#4A14B5"/>
<rect x="0.5" y="0.5" width="45" height="45" rx="22.5" stroke="#4A14B5"/>
</svg>
