<svg width="46" height="46" viewBox="0 0 46 46" fill="none" xmlns="http://www.w3.org/2000/svg">
<path d="M32.3333 17.7881C31.6443 18.087 30.9156 18.2846 30.17 18.3747C30.9567 17.9048 31.5462 17.1654 31.8292 16.2939C31.0899 16.7339 30.2807 17.044 29.4367 17.2106C28.8725 16.5987 28.1212 16.1915 27.3007 16.0527C26.4801 15.9138 25.6367 16.0513 24.9026 16.4435C24.1686 16.8357 23.5855 17.4604 23.2448 18.2197C22.9041 18.9789 22.825 19.8298 23.02 20.6389C21.5253 20.5633 20.0632 20.1741 18.7288 19.4966C17.3943 18.8191 16.2173 17.8684 15.2742 16.7064C14.9434 17.284 14.7696 17.9382 14.77 18.6039C14.7688 19.2221 14.9205 19.8309 15.2116 20.3763C15.5027 20.9217 15.9241 21.3866 16.4383 21.7297C15.8406 21.7135 15.2557 21.5531 14.7333 21.2622V21.3081C14.7378 22.1742 15.0413 23.0122 15.5925 23.6804C16.1437 24.3485 16.9088 24.8057 17.7583 24.9747C17.4313 25.0742 17.0918 25.1267 16.75 25.1306C16.5134 25.1278 16.2774 25.1063 16.0442 25.0664C16.2861 25.8115 16.7542 26.4626 17.3835 26.9292C18.0127 27.3958 18.7718 27.6546 19.555 27.6697C18.2324 28.7104 16.5996 29.2783 14.9167 29.2831C14.6103 29.2841 14.3041 29.2657 14 29.2281C15.7182 30.3375 17.7206 30.9264 19.7658 30.9239C21.1772 30.9385 22.5774 30.6718 23.8845 30.1393C25.1917 29.6068 26.3796 28.8191 27.3789 27.8223C28.3783 26.8256 29.169 25.6397 29.7048 24.3339C30.2407 23.0281 30.511 21.6286 30.5 20.2172C30.5 20.0614 30.5 19.8964 30.5 19.7314C31.2193 19.195 31.8397 18.5374 32.3333 17.7881Z" fill="#4A14B5"/>
<rect x="0.5" y="0.5" width="45" height="45" rx="22.5" stroke="#4A14B5"/>
</svg>
