<svg width="18" height="18" viewBox="0 0 18 18" fill="none" xmlns="http://www.w3.org/2000/svg">
<path fill-rule="evenodd" clip-rule="evenodd" d="M4.1576 2.27451C4.1576 3.31455 3.31448 4.15766 2.27445 4.15766C1.23441 4.15766 0.391296 3.31455 0.391296 2.27451C0.391296 1.23447 1.23441 0.391357 2.27445 0.391357C3.31448 0.391357 4.1576 1.23447 4.1576 2.27451ZM4.24154 5.77179H0.391296V17.6087H4.24154V5.77179ZM14.6887 5.89746C14.7021 5.90188 14.7154 5.9063 14.7291 5.91061C15.5521 6.1231 16.2813 6.60266 16.8024 7.27412C17.3235 7.94559 17.6071 8.77099 17.6087 9.62096V17.6087H13.7595V10.0761C12.5317 7.09968 9.62197 11.1522 9.62197 11.1522V17.6087H5.77173V5.77179H9.62197V8.0348C10.0911 7.40422 11.5148 5.77179 13.7595 5.77179C13.9916 5.77182 14.223 5.79526 14.4504 5.84174C14.5027 5.85012 14.5547 5.86017 14.6064 5.87187C14.6351 5.87976 14.6619 5.88861 14.6887 5.89746Z" fill="#D1CCDB"/>
</svg>
