<svg width="24" height="18" viewBox="0 0 24 18" fill="none" xmlns="http://www.w3.org/2000/svg">
<path d="M23.0416 3.12701C22.7776 2.05036 21.9999 1.20169 21.0118 0.913619C19.2222 0.391358 12.0435 0.391357 12.0435 0.391357C12.0435 0.391357 4.86478 0.391358 3.07417 0.913619C2.08704 1.20169 1.30939 2.04933 1.04539 3.12701C0.565216 5.07927 0.565216 9.15166 0.565216 9.15166C0.565216 9.15166 0.565216 13.2241 1.04539 15.1763C1.30939 16.253 2.08704 17.1016 3.07513 17.3897C4.86478 17.912 12.0435 17.912 12.0435 17.912C12.0435 17.912 19.2222 17.912 21.0128 17.3897C21.9999 17.1016 22.7776 16.254 23.0425 15.1763C23.5217 13.2241 23.5217 9.15166 23.5217 9.15166C23.5217 9.15166 23.5217 5.07927 23.0416 3.12701ZM9.69617 12.85V5.45335L15.6955 9.15166L9.69617 12.85Z" fill="#D1CCDB"/>
</svg>
